<svg width="26" height="33" viewBox="0 0 26 33" fill="none" xmlns="http://www.w3.org/2000/svg">
<rect x="1" y="10" width="24" height="22" rx="1" stroke="#8BC567" stroke-width="2"/>
<line x1="16" y1="11" x2="16" y2="31" stroke="#BADEA5" stroke-width="2"/>
<line x1="10" y1="10" x2="10" y2="32" stroke="#8BC567" stroke-width="2"/>
<line x1="2" y1="11" x2="2" y2="31" stroke="#BADEA5" stroke-width="2"/>
<path d="M5.56287 4.96975C5.33271 4.18719 6.08586 3.47311 6.85506 3.74459L10.3328 4.97204C10.7326 5.11315 11 5.49105 11 5.91503V8C11 8.55228 10.5523 9 10 9H7.49648C7.05287 9 6.66228 8.70775 6.53711 8.28217L5.56287 4.96975Z" stroke="#8BC567" stroke-width="2"/>
<path d="M14.6402 5.76822L17.3598 3.50186C18.0111 2.95909 19 3.42224 19 4.27008V8C19 8.55228 18.5523 9 18 9H13.5241C12.5888 9 12.1654 7.83054 12.8839 7.23178L14.6402 5.76822Z" stroke="#8BC567" stroke-width="2"/>
<line x1="26" y1="16" x2="1" y2="16" stroke="#8BC567" stroke-width="2"/>
</svg>
